<?xml version="1.0" standalone="no"?><!DOCTYPE svg PUBLIC "-//W3C//DTD SVG 1.1//EN" "http://www.w3.org/Graphics/SVG/1.1/DTD/svg11.dtd"><svg t="1579072206832" class="icon" viewBox="0 0 1024 1024" version="1.1" xmlns="http://www.w3.org/2000/svg" p-id="1607" xmlns:xlink="http://www.w3.org/1999/xlink" width="200" height="200"><defs><style type="text/css"></style></defs><path d="M946.176 777.728H434.688c-78.336 0-151.552-30.72-207.36-86.016s-86.016-129.024-86.016-207.36V247.296h799.744c35.84 0 65.024 29.184 65.024 65.024v404.48c0.512 33.792-26.624 60.928-59.904 60.928zM169.472 275.456v209.408c0 146.432 118.784 265.216 265.216 265.216h511.488c17.92 0 32.768-14.848 32.768-32.768V312.32c0-20.48-16.896-37.376-37.376-37.376 0 0.512-772.096 0.512-772.096 0.512z" fill="" p-id="1608"></path><path d="M141.312 121.856H168.96v334.848h-27.648V121.856z" fill="" p-id="1609"></path><path d="M29.696 108.032H168.96v27.648H29.696v-27.648z m837.12 265.216h27.648V568.32h-27.648V373.248z m0 222.72h27.648v27.648h-27.648v-27.648z m-460.288 321.024c-23.04 0-41.984-18.944-41.984-41.984 0-23.04 18.944-41.984 41.984-41.984s41.984 18.944 41.984 41.984c0 23.04-18.944 41.984-41.984 41.984z m0-55.808c-7.68 0-13.824 6.144-13.824 13.824s6.144 13.824 13.824 13.824 13.824-6.144 13.824-13.824-6.144-13.824-13.824-13.824zM852.992 916.992c-23.04 0-41.984-18.944-41.984-41.984 0-23.04 18.944-41.984 41.984-41.984 23.04 0 41.984 18.944 41.984 41.984 0 23.04-18.944 41.984-41.984 41.984z m0-55.808c-7.68 0-13.824 6.144-13.824 13.824s6.144 13.824 13.824 13.824 13.824-6.144 13.824-13.824-6.144-13.824-13.824-13.824z" fill="" p-id="1610"></path></svg>